<svg width="52" height="56" xmlns="http://www.w3.org/2000/svg"><defs><linearGradient x1="2.073%" y1="50%" x2="94.944%" y2="79.522%" id="a"><stop stop-color="#FFA4A4" offset="0%"/><stop stop-color="#FFA3A3" offset="0%"/><stop stop-color="#FF7A8E" offset="100%"/></linearGradient></defs><g transform="translate(-270 -1320)" fill="url(#a)" stroke="url(#a)" fill-rule="evenodd"><path d="M315.975 1325.328v-2.05a1.883 1.883 0 0 0-1.88-1.881h-1.558c-1.037 0-1.88.845-1.88 1.88v2.009l-12.124.003v-2.01c0-1.037-.845-1.88-1.88-1.88h-1.557c-1.038 0-1.88.846-1.88 1.88v2.01h-12.121v-2.01c0-1.037-.846-1.88-1.881-1.88h-1.557c-1.038 0-1.88.846-1.88 1.88v2.088a5.444 5.444 0 0 0-4.576 5.39v38.667a5.474 5.474 0 0 0 5.468 5.469h38.664a5.474 5.474 0 0 0 5.469-5.469l-.003-38.67c.003-2.795-2.112-5.105-4.824-5.426zm-3.89-2.048c0-.251.204-.452.453-.452h1.556c.252 0 .452.204.452.452v5.446a.452.452 0 0 1-.452.452h-1.556a.452.452 0 0 1-.452-.452v-5.446zm-17.44 0c0-.251.203-.452.451-.452h1.557c.251 0 .452.204.452.452v5.446a.452.452 0 0 1-.452.452h-1.557a.452.452 0 0 1-.452-.452v-5.446zm-17.442 0c0-.251.203-.452.452-.452h1.557c.25 0 .452.204.452.452v5.446a.452.452 0 0 1-.452.452h-1.557a.452.452 0 0 1-.452-.452v-5.446zm-1.429 3.538v1.906c0 1.037.846 1.88 1.88 1.88h1.558c1.038 0 1.88-.845 1.88-1.88v-2.01h12.124v2.01c0 1.037.845 1.88 1.88 1.88h1.557c1.038 0 1.88-.845 1.88-1.88v-2.01h12.124v2.01c0 1.037.846 1.88 1.88 1.88h1.558c1.038 0 1.88-.845 1.88-1.88v-1.954a4.044 4.044 0 0 1 3.399 3.985v6.95l-46.747.003v-6.95a4.026 4.026 0 0 1 3.148-3.94zm39.56 46.643H276.67a4.044 4.044 0 0 1-4.04-4.04l-.003-30.284h46.743v30.284a4.042 4.042 0 0 1-4.037 4.04z"/><path d="M296 1362.83l-13.848-13.848-1.01 1.01L296 1364.85l14.86-14.858-1.01-1.01z"/></g></svg>