<?xml version="1.0" encoding="UTF-8"?>
<svg width="52px" height="56px" viewBox="0 0 52 56" version="1.1" xmlns="http://www.w3.org/2000/svg" xmlns:xlink="http://www.w3.org/1999/xlink">
    <!-- Generator: Sketch 49.2 (51160) - http://www.bohemiancoding.com/sketch -->
    <title>Page 1</title>
    <desc>Created with Sketch.</desc>
    <defs>
        <linearGradient x1="2.07334737%" y1="50%" x2="94.9444901%" y2="79.5219809%" id="linearGradient-1">
            <stop stop-color="#FFA4A4" offset="0%"></stop>
            <stop stop-color="#FFA3A3" offset="0%"></stop>
            <stop stop-color="#FF7A8E" offset="100%"></stop>
        </linearGradient>
    </defs>
    <g id="Page-1" stroke="none" stroke-width="1" fill="none" fill-rule="evenodd">
        <g id="single-location" transform="translate(-270.000000, -1320.000000)" fill="url(#linearGradient-1)" stroke="url(#linearGradient-1)">
            <g id="Group-2" transform="translate(271.000000, 1317.000000)">
                <g id="Page-1" transform="translate(0.000000, 4.000000)">
                    <path d="M44.975,4.32785714 L44.975,2.27707143 C44.975,1.23914286 44.1295714,0.3965 43.0944286,0.3965 L41.5375,0.3965 C40.4995714,0.3965 39.6569286,1.24192857 39.6569286,2.27707143 L39.6569286,4.286 L27.5333571,4.28879286 L27.5333571,2.27986429 C27.5333571,1.24193571 26.6879286,0.399292857 25.6527857,0.399292857 L24.0958571,0.399292857 C23.0579286,0.399292857 22.2152857,1.24472143 22.2152857,2.27986429 L22.2152857,4.28879286 L10.0945714,4.28879286 L10.0945714,2.27986429 C10.0945714,1.24193571 9.24914286,0.399292857 8.214,0.399292857 L6.65707143,0.399292857 C5.61914286,0.399292857 4.7765,1.24472143 4.7765,2.27986429 L4.7765,4.36693571 C2.16207143,4.79383571 0.200642857,7.03715 0.200642857,9.75757857 L0.200642857,48.4240071 C0.200642857,51.4402214 2.65321429,53.8927214 5.66935714,53.8927214 L44.3329286,53.8927214 C47.3491429,53.8927214 49.8016429,51.44015 49.8016429,48.4240071 L49.79885,9.75471429 C49.8016429,6.95892857 47.6867071,4.64871429 44.9746357,4.32778571 L44.975,4.32785714 Z M41.0855,2.27985714 C41.0855,2.02874286 41.2891857,1.82785 41.5375071,1.82785 L43.0944357,1.82785 C43.34555,1.82785 43.5464429,2.03153571 43.5464429,2.27985714 L43.5464429,7.72628571 C43.5464429,7.9774 43.3427571,8.17829286 43.0944357,8.17829286 L41.5375071,8.17829286 C41.2863929,8.17829286 41.0855,7.97460714 41.0855,7.72628571 L41.0855,2.27985714 Z M23.6440714,2.27985714 C23.6440714,2.02874286 23.8477571,1.82785 24.0960786,1.82785 L25.6530071,1.82785 C25.9041214,1.82785 26.1050143,2.03153571 26.1050143,2.27985714 L26.1050143,7.72628571 C26.1050143,7.9774 25.9013286,8.17829286 25.6530071,8.17829286 L24.0960786,8.17829286 C23.8449643,8.17829286 23.6440714,7.97460714 23.6440714,7.72628571 L23.6440714,2.27985714 Z M6.20264286,2.27985714 C6.20264286,2.02874286 6.40632857,1.82785 6.65465,1.82785 L8.21157857,1.82785 C8.46269286,1.82785 8.66358571,2.03153571 8.66358571,2.27985714 L8.66358571,7.72628571 C8.66358571,7.9774 8.4599,8.17829286 8.21157857,8.17829286 L6.65465,8.17829286 C6.40353571,8.17829286 6.20264286,7.97460714 6.20264286,7.72628571 L6.20264286,2.27985714 Z M4.77407143,5.81778571 L4.77407143,7.7235 C4.77407143,8.76142857 5.6195,9.60407143 6.65464286,9.60407143 L8.21157143,9.60407143 C9.2495,9.60407143 10.0921429,8.75864286 10.0921429,7.7235 L10.0921429,5.71457143 L22.2157143,5.71457143 L22.2157143,7.7235 C22.2157143,8.76142857 23.0611429,9.60407143 24.0962857,9.60407143 L25.6532143,9.60407143 C26.6911429,9.60407143 27.5337857,8.75864286 27.5337857,7.7235 L27.5337857,5.71457143 L39.6573571,5.71457143 L39.6573571,7.7235 C39.6573571,8.76142857 40.5027857,9.60407143 41.5379286,9.60407143 L43.0948571,9.60407143 C44.1327857,9.60407143 44.9754286,8.75864286 44.9754286,7.7235 L44.9754286,5.77035714 C46.8978571,6.08006429 48.3738571,7.74578571 48.3738571,9.75471429 L48.3738571,16.7050714 L1.62742857,16.7078643 L1.62742857,9.75750714 C1.62742857,7.82672143 2.96392857,6.22515 4.77471429,5.81779286 L4.77407143,5.81778571 Z M44.3333571,52.4613571 L5.66978571,52.4613571 C3.44321429,52.4613571 1.62964286,50.6505 1.62964286,48.4212143 L1.62685,18.1369286 L48.3704246,18.1369286 L48.3704214,48.4212143 C48.3732143,50.6477857 46.5595643,52.4613571 44.3330643,52.4613571 L44.3333571,52.4613571 Z" id="Fill-1"></path>
                    <polygon id="Fill-2" points="25 41.83 11.1521429 27.9821429 10.1420714 28.9922143 24.9999286 43.8500714 39.8606429 28.9922143 38.8505714 27.9821429"></polygon>
                </g>
            </g>
        </g>
    </g>
</svg>