<svg width="38" height="56" xmlns="http://www.w3.org/2000/svg"><defs><linearGradient x1="2.073%" y1="50%" x2="94.944%" y2="79.522%" id="a"><stop stop-color="#FFA4A4" offset="0%"/><stop stop-color="#FFA3A3" offset="0%"/><stop stop-color="#FF7A8E" offset="100%"/></linearGradient></defs><g transform="translate(-1015 -1322)" fill="url(#a)" fill-rule="evenodd"><path d="M1015.255 1327.822v44.239c0 3.143 2.56 5.821 5.822 5.821h25.846c3.143 0 5.822-2.56 5.822-5.821v-44.24c0-3.143-2.56-5.821-5.822-5.821h-25.846c-3.143 0-5.822 2.56-5.822 5.822zm2.33 0c0-1.862 1.512-3.493 3.492-3.493h25.846c1.862 0 3.492 1.513 3.492 3.493v6.636h-32.83v-6.636zm0 8.963h32.715v31.084h-32.715v-31.084zm0 33.414h32.715v1.862c0 1.862-1.513 3.492-3.493 3.492h-25.73c-1.862 0-3.492-1.513-3.492-3.492v-1.862z"/><path d="M1037.493 1328.053h-6.986c-.698 0-1.163.465-1.163 1.164 0 .698.465 1.163 1.163 1.163l6.986.002c.698 0 1.163-.465 1.163-1.163 0-.699-.58-1.166-1.163-1.166z"/></g></svg>