<?xml version="1.0" encoding="UTF-8"?>
<svg width="38px" height="56px" viewBox="0 0 38 56" version="1.1" xmlns="http://www.w3.org/2000/svg" xmlns:xlink="http://www.w3.org/1999/xlink">
    <!-- Generator: Sketch 49.2 (51160) - http://www.bohemiancoding.com/sketch -->
    <title>Page 1</title>
    <desc>Created with Sketch.</desc>
    <defs>
        <linearGradient x1="2.07334737%" y1="50%" x2="94.9444901%" y2="79.5219809%" id="linearGradient-1">
            <stop stop-color="#FFA4A4" offset="0%"></stop>
            <stop stop-color="#FFA3A3" offset="0%"></stop>
            <stop stop-color="#FF7A8E" offset="100%"></stop>
        </linearGradient>
    </defs>
    <g id="Page-1" stroke="none" stroke-width="1" fill="none" fill-rule="evenodd">
        <g id="single-location" transform="translate(-1015.000000, -1322.000000)" fill="url(#linearGradient-1)">
            <g id="Group-2" transform="translate(271.000000, 1317.000000)">
                <g id="Page-1" transform="translate(744.000000, 5.000000)">
                    <path d="M0.255382353,5.82182353 L0.255382353,50.0605294 C0.255382353,53.2039129 2.81591176,55.882354 6.07720588,55.882354 L31.9227941,55.882354 C35.0661765,55.882354 37.7446176,53.3218246 37.7446176,50.0605294 L37.7446176,5.82182353 C37.7446176,2.67844118 35.1840882,0 31.9227941,0 L6.07720588,0 C2.93382353,0 0.255382353,2.56052941 0.255382353,5.82182353 Z M2.58455882,5.82182353 C2.58455882,3.95982353 4.09729412,2.32917647 6.07720588,2.32917647 L31.9227941,2.32917647 C33.7847941,2.32917647 35.4154412,3.84191176 35.4154412,5.82182353 L35.4154412,12.4578529 L2.58455882,12.4578529 L2.58455882,5.82182353 Z M2.58455882,14.7847941 L35.2997647,14.7847941 L35.2997647,45.8693529 L2.58455882,45.8693529 L2.58455882,14.7847941 Z M2.58455882,48.1985294 L35.2997647,48.1985294 L35.2997647,50.0605294 C35.2997647,51.9225289 33.7870294,53.5531759 31.8071176,53.5531759 L6.07720588,53.5531759 C4.21520588,53.5531759 2.58455882,52.0404406 2.58455882,50.0605294 L2.58455882,48.1985294 Z" id="Fill-1"></path>
                    <path d="M22.4926471,6.05317647 L15.5073529,6.05317647 C14.8088235,6.05317647 14.3438824,6.51813441 14.3438824,7.21664706 C14.3438824,7.91515971 14.8088403,8.38011765 15.5073529,8.38011765 L22.4926471,8.38230265 C23.1911765,8.38230265 23.6561176,7.91734471 23.6561176,7.21883206 C23.6561176,6.52031941 23.0754441,6.05318206 22.4926471,6.05318206 L22.4926471,6.05317647 Z" id="Fill-2"></path>
                </g>
            </g>
        </g>
    </g>
</svg>