<svg width="53" height="53" xmlns="http://www.w3.org/2000/svg"><defs><linearGradient x1="2.073%" y1="50%" x2="94.944%" y2="79.522%" id="a"><stop stop-color="#FFA4A4" offset="0%"/><stop stop-color="#FFA3A3" offset="0%"/><stop stop-color="#FF7A8E" offset="100%"/></linearGradient></defs><path d="M1117.3 4.4c-13.972 0-25.3 11.328-25.3 25.3 0 13.972 11.328 25.3 25.3 25.3a25.2 25.2 0 0 0 11.81-2.921.817.817 0 0 0-.761-1.443 23.566 23.566 0 0 1-11.049 2.732 23.592 23.592 0 0 1-16.735-6.931 23.594 23.594 0 0 1-6.933-16.737c0-6.538 2.648-12.45 6.93-16.735 4.288-4.285 10.2-6.934 16.738-6.934s12.45 2.649 16.735 6.931a23.583 23.583 0 0 1 6.931 16.735c0 1.808-.202 3.567-.584 5.256-.312 1.357-1.002 2.554-1.94 3.4a5.134 5.134 0 0 1-3.491 1.348 5.389 5.389 0 0 1-4.004-1.772c-.046-.05-.103-.08-.158-.117a4.419 4.419 0 0 0 .384-1.805v-12.54a4.454 4.454 0 0 0-4.453-4.454l-18.841.002a4.454 4.454 0 0 0-4.454 4.454V36.01a4.454 4.454 0 0 0 4.454 4.454h18.843a4.44 4.44 0 0 0 3.15-1.304 7.018 7.018 0 0 0 5.081 2.176 6.776 6.776 0 0 0 4.583-1.768c1.213-1.091 2.056-2.585 2.438-4.247v-.002c.409-1.81.626-3.69.626-5.62 0-13.973-11.328-25.3-25.3-25.3zm-11.416 17.073a2.806 2.806 0 0 1 1.994-.826h18.843a2.8 2.8 0 0 1 2.781 2.411l-10.623 7.12-.022.016c-.466.336-1.01.5-1.557.503a2.653 2.653 0 0 1-1.558-.503l-.021-.016-10.621-7.117a2.801 2.801 0 0 1 .784-1.588zm23.657 14.536c0 .782-.314 1.482-.826 1.994a2.806 2.806 0 0 1-1.994.826l-18.843.002a2.802 2.802 0 0 1-1.994-.826 2.806 2.806 0 0 1-.826-1.994V24.997l9.753 6.536v-.002a4.295 4.295 0 0 0 4.977 0l.002.002 9.753-6.536-.002 11.012z" transform="translate(-1091 -3)" fill="url(#a)" stroke="url(#a)" fill-rule="evenodd"/></svg>