<svg width="25" height="25" xmlns="http://www.w3.org/2000/svg"><g fill="none"><path d="M18 0H6.86A6.869 6.869 0 0 0 0 6.861v11.14a6.869 6.869 0 0 0 6.86 6.861H18a6.869 6.869 0 0 0 6.862-6.861V6.861A6.869 6.869 0 0 0 18.001 0z" fill="#000"/><path d="M12.431 6.025a6.414 6.414 0 0 0-6.406 6.406 6.413 6.413 0 0 0 6.406 6.406 6.413 6.413 0 0 0 6.406-6.406 6.414 6.414 0 0 0-6.406-6.406zm0 10.606a4.205 4.205 0 0 1-4.2-4.2c0-2.316 1.884-4.2 4.2-4.2 2.316 0 4.2 1.884 4.2 4.2 0 2.316-1.884 4.2-4.2 4.2zm6.675-12.476c-.425 0-.842.172-1.143.473-.301.3-.475.718-.475 1.144 0 .425.174.843.475 1.144.3.3.718.474 1.143.474.426 0 .843-.174 1.144-.474a1.63 1.63 0 0 0 .474-1.144c0-.426-.172-.844-.474-1.144a1.625 1.625 0 0 0-1.144-.473z" fill="#FFF"/></g></svg>