<svg width="26" height="25" xmlns="http://www.w3.org/2000/svg"><path d="M25.947 15.235v9.592h-5.561v-8.95c0-2.248-.805-3.783-2.818-3.783-1.536 0-2.451 1.034-2.853 2.035-.147.357-.185.855-.185 1.356v9.342H8.967s.075-15.158 0-16.729h5.563v2.371l-.037.054h.037v-.054c.739-1.138 2.059-2.764 5.013-2.764 3.66 0 6.404 2.391 6.404 7.53zM3.147.034C1.246.034 0 1.282 0 2.924c0 1.605 1.209 2.891 3.074 2.891h.037c1.94 0 3.147-1.285 3.147-2.891C6.22 1.282 5.05.034 3.148.034zM.33 24.827h5.561V8.098H.331v16.73z"/></svg>