<svg width="220" height="46" xmlns="http://www.w3.org/2000/svg"><g fill="none" fill-rule="evenodd"><path d="M67.309 21.4c1.886 0 3.469-1.487 3.469-3.438 0-1.82-1.583-3.21-3.47-3.21h-3.906v6.649h3.907zm-8.285-10.086c0-.331.27-.629.64-.629h7.914c4.142 0 7.544 3.308 7.544 7.31 0 4.1-3.402 7.44-7.51 7.44h-4.21v7.773c0 .331-.303.629-.64.629h-3.098a.634.634 0 0 1-.64-.63V11.315zM89.116 30.63c4.284 0 7.82-3.483 7.82-7.742 0-4.26-3.536-7.809-7.82-7.809-4.284 0-7.786 3.55-7.786 7.81 0 4.258 3.502 7.74 7.786 7.74m0-19.944c6.8 0 12.239 5.443 12.239 12.203 0 6.761-5.44 12.136-12.24 12.136s-12.204-5.375-12.204-12.136c0-6.76 5.405-12.203 12.205-12.203M103.179 11.835c-.136-.474.135-.812.61-.812h3.124c.271 0 .543.237.61.474l3.53 13.487h.137l5.397-13.927c.068-.203.238-.372.577-.372h.611c.34 0 .51.17.577.372l5.431 13.927h.136l3.462-13.487c.068-.237.34-.474.611-.474h3.124c.475 0 .746.338.61.812l-6.415 22.716a.652.652 0 0 1-.61.473h-.544c-.305 0-.51-.17-.578-.372l-6.076-15.313h-.17l-6.008 15.313c-.101.203-.237.372-.577.372h-.543a.651.651 0 0 1-.61-.473l-6.416-22.716zM134.743 11.314c0-.331.267-.629.636-.629h13.633c.368 0 .636.298.636.63v2.711c0 .331-.268.629-.636.629h-9.915v5.423h8.273c.335 0 .637.298.637.629v2.745a.632.632 0 0 1-.637.628h-8.273v5.788h9.915c.368 0 .636.297.636.629v2.711c0 .331-.268.629-.636.629h-13.633a.632.632 0 0 1-.636-.629V11.314zM164.472 21.236c1.813 0 3.385-1.521 3.385-3.374 0-1.753-1.572-3.207-3.385-3.207h-5.574v6.58h5.574zm-10.055-9.922c0-.331.274-.629.65-.629h9.78c4.105 0 7.457 3.175 7.457 7.112 0 3.042-2.087 5.523-5.062 6.68l4.685 8.4c.24.43 0 .96-.581.96h-3.591c-.308 0-.479-.165-.547-.298l-4.549-8.764h-3.796v8.433c0 .331-.307.629-.65.629h-3.146a.639.639 0 0 1-.65-.629V11.314z" fill="#FFF"/><path d="M179.458 11.321c0-.335.308-.636.651-.636h3.254c.377 0 .65.301.65.636V25c0 2.843 1.987 5.083 4.967 5.083 2.98 0 5-2.24 5-5.05v-13.71c0-.336.275-.637.652-.637h3.254c.342 0 .65.301.65.636v13.913c0 5.083-4.144 9.196-9.556 9.196-5.377 0-9.522-4.113-9.522-9.196V11.32zM212.187 21.4c1.886 0 3.47-1.487 3.47-3.438 0-1.82-1.584-3.21-3.47-3.21h-3.906v6.649h3.906zm-8.285-10.086c0-.331.27-.629.64-.629h7.914c4.143 0 7.544 3.308 7.544 7.31 0 4.1-3.401 7.44-7.51 7.44h-4.21v7.773c0 .331-.303.629-.64.629h-3.098a.634.634 0 0 1-.64-.63V11.315z" fill="#FFA4A4"/><path d="M45.908 22.558c0 12.458-10.277 22.557-22.954 22.557C10.277 45.115 0 35.015 0 22.558 0 10.1 10.277 0 22.954 0 35.63 0 45.908 10.1 45.908 22.558" fill="#FFF"/><path fill="#FFA4A4" d="M31.399 6.571l-8.75 12.851h9.63L13.74 36.846l9.185-12.931H13.2z"/></g></svg>