<svg width="49" height="59" xmlns="http://www.w3.org/2000/svg"><defs><linearGradient x1="2.073%" y1="50%" x2="94.944%" y2="79.522%" id="a"><stop stop-color="#FFA4A4" offset="0%"/><stop stop-color="#FFA3A3" offset="0%"/><stop stop-color="#FF7A8E" offset="100%"/></linearGradient></defs><g transform="translate(-658 -1316)" stroke="url(#a)" stroke-width="2.6" fill="none" fill-rule="evenodd"><path d="M692.396 1341.063c0 5.524-4.476 10-10 10s-10-4.476-10-10c0-5.525 4.476-10 10-10s10 4.475 10 10"/><path d="M662.917 1350.958c-1.771-3.229-2.813-6.875-2.813-10.833 0-12.396 10-22.396 22.396-22.396s22.396 10 22.396 22.396c0 3.854-.938 7.5-2.708 10.625-4.375 8.646-11.25 15.625-19.792 22.604-6.146-4.375-14.167-13.125-19.48-22.396z"/></g></svg>