<svg width="10" height="115" xmlns="http://www.w3.org/2000/svg"><g fill="none" fill-rule="evenodd"><path d="M5 61v52m4-6l-4.117 6.647L1 107" stroke="#FFF" stroke-width=".5"/><path d="M1.566 45.898l.756 1.056c-.564.408-.9.852-.9 1.788 0 .852.384 1.356 1.08 1.356.792 0 1.104-.624 1.356-1.776.36-1.668.984-2.532 2.472-2.532 1.236 0 2.376.828 2.376 2.82 0 1.416-.432 2.412-1.356 3.096l-.756-1.092c.588-.492.9-.984.9-1.932 0-1.14-.504-1.5-1.104-1.5-.66 0-1.068.372-1.38 1.812-.336 1.596-1.104 2.496-2.508 2.496-1.248 0-2.292-.816-2.292-2.76 0-1.32.444-2.244 1.356-2.832zm5.448-5.448l.672-.96c.732.42 1.02 1.092 1.02 2.148 0 1.716-1.116 2.628-2.712 2.628h-.816c-1.764 0-2.688-.864-2.688-2.436 0-1.644.984-2.424 2.76-2.424h.66v3.588h.024c.936 0 1.668-.36 1.668-1.308 0-.708-.216-.996-.588-1.236zm-3.408 1.38c0 .744.504 1.092 1.32 1.152V40.69c-.876.048-1.32.408-1.32 1.14zm3.408-7.824l.672-.96c.732.42 1.02 1.092 1.02 2.148 0 1.716-1.116 2.628-2.712 2.628h-.816c-1.764 0-2.688-.864-2.688-2.436 0-1.644.984-2.424 2.76-2.424h.66v3.588h.024c.936 0 1.668-.36 1.668-1.308 0-.708-.216-.996-.588-1.236zm-3.408 1.38c0 .744.504 1.092 1.32 1.152v-2.292c-.876.048-1.32.408-1.32 1.14zm4.992-7.86h-6v-1.26h.54c-.36-.24-.648-.696-.648-1.404 0-.756.3-1.356.864-1.716-.54-.396-.864-1.008-.864-1.752 0-1.296.792-2.076 2.352-2.076h3.756v1.284H4.986c-.984 0-1.356.408-1.356 1.068 0 .636.48 1.092 1.284 1.116h3.684v1.272H4.986c-1.02 0-1.356.444-1.356 1.056 0 .66.504 1.128 1.344 1.128h3.624v1.284zM5.214 12.502h.756c1.596 0 2.736.78 2.736 2.544 0 1.68-1.08 2.556-2.736 2.556h-.756c-1.764 0-2.724-.936-2.724-2.556s.96-2.544 2.724-2.544zm2.388 2.544c0-.912-.732-1.272-1.668-1.272h-.696c-1.044 0-1.632.42-1.632 1.272 0 .864.6 1.284 1.632 1.284h.696c.936 0 1.668-.312 1.668-1.284zM3.378 6.514l.72 1.02c-.276.192-.468.456-.468.864 0 .648.48 1.104 1.344 1.104h3.624v1.284h-6v-1.26h.54c-.348-.228-.648-.636-.648-1.344 0-.768.3-1.296.888-1.668zm3.636-4.68l.672-.96c.732.42 1.02 1.092 1.02 2.148 0 1.716-1.116 2.628-2.712 2.628h-.816c-1.764 0-2.688-.864-2.688-2.436C2.49 1.57 3.474.79 5.25.79h.66v3.588h.024c.936 0 1.668-.36 1.668-1.308 0-.708-.216-.996-.588-1.236zm-3.408 1.38c0 .744.504 1.092 1.32 1.152V2.074c-.876.048-1.32.408-1.32 1.14z" fill="#FFF" fill-rule="nonzero"/></g></svg>