<svg width="28" height="23" xmlns="http://www.w3.org/2000/svg"><path d="M28 2.711a11.47 11.47 0 0 1-3.298.905A5.768 5.768 0 0 0 27.227.44a11.58 11.58 0 0 1-3.65 1.395A5.728 5.728 0 0 0 19.385.02a5.744 5.744 0 0 0-5.596 7.051A16.307 16.307 0 0 1 1.951 1.07a5.7 5.7 0 0 0-.777 2.887 5.741 5.741 0 0 0 2.555 4.78 5.744 5.744 0 0 1-2.602-.72v.07a5.75 5.75 0 0 0 4.607 5.633c-.481.13-.989.201-1.514.201-.37 0-.73-.036-1.081-.106a5.747 5.747 0 0 0 5.364 3.989 11.524 11.524 0 0 1-7.133 2.455c-.464 0-.92-.028-1.37-.08a16.236 16.236 0 0 0 8.804 2.585c10.567 0 16.342-8.752 16.342-16.342l-.019-.743A11.47 11.47 0 0 0 28 2.71z"/></svg>