<?xml version="1.0" standalone="no"?>
<!DOCTYPE svg PUBLIC "-//W3C//DTD SVG 20010904//EN"
 "http://www.w3.org/TR/2001/REC-SVG-20010904/DTD/svg10.dtd">
<svg version="1.0" xmlns="http://www.w3.org/2000/svg"
 width="700.000000pt" height="700.000000pt" viewBox="0 0 700.000000 700.000000"
 preserveAspectRatio="xMidYMid meet">
<metadata>
Created by potrace 1.11, written by Peter Selinger 2001-2013
</metadata>
<g transform="translate(0.000000,700.000000) scale(0.100000,-0.100000)"
fill="#000000" stroke="none">
<path d="M3268 6995 c-2 -2 -41 -6 -88 -9 -47 -4 -98 -8 -115 -11 -16 -2 -48
-6 -70 -9 -143 -18 -451 -87 -583 -131 -684 -229 -1222 -602 -1667 -1155 -356
-443 -614 -1027 -701 -1585 -31 -199 -38 -307 -38 -545 0 -266 14 -445 49
-620 3 -14 8 -38 11 -55 3 -16 9 -46 14 -65 5 -19 11 -48 14 -63 9 -54 83
-305 107 -362 4 -11 20 -51 35 -90 82 -215 214 -467 346 -664 60 -88 199 -271
248 -326 258 -289 453 -459 764 -665 42 -28 77 -50 80 -50 2 0 34 -18 71 -41
150 -91 468 -232 665 -294 84 -26 317 -86 395 -101 22 -4 42 -8 45 -9 9 -2 95
-15 145 -21 28 -3 59 -8 70 -10 94 -19 587 -26 730 -11 78 9 152 18 175 22 8
1 35 6 60 9 38 6 99 17 215 40 153 30 456 130 640 211 253 111 569 302 760
459 27 23 58 48 69 56 172 137 459 446 595 640 258 368 433 744 537 1152 35
138 36 143 64 298 5 30 12 81 15 113 4 32 8 66 10 75 8 46 17 241 17 385 1
763 -264 1515 -746 2121 -43 55 -90 113 -105 130 -33 38 -291 296 -317 316
-10 9 -48 40 -84 70 -182 155 -417 308 -655 428 -386 194 -786 309 -1245 358
-64 6 -526 14 -532 9z"/>
</g>
</svg>
