<?xml version="1.0" encoding="UTF-8"?>
<svg width="70px" height="52px" viewBox="0 0 70 52" version="1.1" xmlns="http://www.w3.org/2000/svg" xmlns:xlink="http://www.w3.org/1999/xlink">
    <!-- Generator: sketchtool 49.1 (51147) - http://www.bohemiancoding.com/sketch -->
    <title>452A5F6D-1EF7-4C83-A482-8E7D3C3AD3EE</title>
    <desc>Created with sketchtool.</desc>
    <defs>
        <linearGradient x1="2.07334737%" y1="50%" x2="94.9444901%" y2="79.5219809%" id="linearGradient-1">
            <stop stop-color="#FFA4A4" offset="0%"></stop>
            <stop stop-color="#FFA3A3" offset="0%"></stop>
            <stop stop-color="#FF7A8E" offset="100%"></stop>
        </linearGradient>
    </defs>
    <g id="Page-1" stroke="none" stroke-width="1" fill="none" fill-rule="evenodd">
        <g id="Home-Copy-3" transform="translate(-300.000000, -3324.000000)" fill="url(#linearGradient-1)" fill-rule="nonzero">
            <g id="heart" transform="translate(300.000000, 3324.000000)">
                <path d="M68.7695962,24.608076 L62.8503563,24.608076 C65.3111639,19.0213777 65.0451306,14.4988124 64.1140143,11.4394299 C62.5178147,5.98574822 57.1306413,0.0665083135 49.1496437,0.0665083135 C47.0213777,0.0665083135 44.8931116,0.465558195 42.6983373,1.26365796 C38.9073634,2.66033254 36.3800475,4.19002375 35.2494062,4.98812352 C34.1187648,4.19002375 31.6579572,2.66033254 27.8004751,1.26365796 C25.6057007,0.465558195 23.4109264,0.0665083135 21.3491686,0.0665083135 C13.368171,0.0665083135 7.98099762,5.98574822 6.3847981,11.4394299 C5.45368171,14.6983373 5.12114014,19.6199525 8.24703088,25.8052257 L1.06413302,25.8052257 C0.465558195,25.8052257 0,26.2707838 0,26.8693587 C0,27.4679335 0.465558195,27.9334917 1.06413302,27.9334917 L9.51068884,27.9334917 C9.8432304,28.5320665 10.2422803,29.1306413 10.7078385,29.7292162 C17.6247031,39.7054632 32.6555819,50.5463183 35.3824228,51.2114014 L35.3824228,51.2779097 C35.3824228,51.2779097 35.4489311,51.2779097 35.5154394,51.2114014 C35.5819477,51.2114014 35.6484561,51.2114014 35.7149644,51.2114014 L35.7149644,51.1448931 C38.0427553,50.0142518 52.4750594,40.7030879 60.0570071,29.6627078 C60.7885986,28.6650831 61.3871734,27.6674584 61.9192399,26.6698337 L68.9026128,26.6698337 C69.5011876,26.6698337 69.9667458,26.2042755 69.9667458,25.6057007 C69.9667458,25.0071259 69.368171,24.608076 68.7695962,24.608076 Z M58.128266,28.5320665 C51.0783848,38.8408551 38.1092637,47.1543943 35.3159145,48.9501188 C32.456057,47.1543943 19.5534442,38.7743468 12.4370546,28.5320665 C12.304038,28.3325416 12.1710214,28.1330166 12.0380048,27.9334917 L21.8147268,27.9334917 C22.2137767,27.9334917 22.6128266,27.7339667 22.8123515,27.3349169 L27.2684086,18.5558195 L34.2517815,36.4465558 C34.3847981,36.8456057 34.8503563,37.111639 35.2494062,37.111639 C35.2494062,37.111639 35.2494062,37.111639 35.3159145,37.111639 C35.7814727,37.111639 36.1805226,36.7790974 36.3135392,36.3135392 L42.432304,15.3634204 L45.6912114,25.9382423 C45.824228,26.3372922 46.1567696,26.6033254 46.5558195,26.6698337 C46.9548694,26.736342 47.3539192,26.5368171 47.6199525,26.2042755 L50.2137767,22.4133017 L52.4085511,26.1377672 C52.608076,26.4703088 52.9406176,26.6698337 53.3396675,26.6698337 L59.3254157,26.6698337 C58.9263658,27.3349169 58.5273159,27.9334917 58.128266,28.5320665 Z M60.5225653,24.608076 L54.0047506,24.608076 L51.2779097,19.9524941 C51.0783848,19.6199525 50.7458432,19.4204276 50.3467933,19.4204276 C49.9477435,19.4204276 49.6152019,19.5534442 49.415677,19.8859857 L47.1543943,23.2114014 L43.4964371,11.3064133 C43.3634204,10.8408551 42.8978622,10.5748219 42.432304,10.5083135 C41.9667458,10.5083135 41.5011876,10.8408551 41.368171,11.3064133 L35.1828979,32.6555819 L28.4655582,15.4964371 C28.3325416,15.0973872 27.9334917,14.8313539 27.5344418,14.8313539 C27.0688836,14.8313539 26.736342,15.0308789 26.5368171,15.4299287 L21.2826603,25.7387173 L10.7078385,25.7387173 C8.04750594,20.8836105 7.31591449,16.2280285 8.51306413,12.0380048 C9.90973872,7.31591449 14.4988124,2.26128266 21.415677,2.26128266 C23.2779097,2.26128266 25.2066508,2.66033254 27.1353919,3.32541568 C31.9904988,5.12114014 34.584323,7.18289786 34.6508314,7.18289786 C35.0498812,7.51543943 35.5819477,7.51543943 35.9809976,7.18289786 C35.9809976,7.18289786 38.5748219,5.12114014 43.4964371,3.32541568 C45.4251781,2.59382423 47.3539192,2.26128266 49.216152,2.26128266 C56.0665083,2.26128266 60.7220903,7.31591449 62.1187648,12.0380048 C63.2494062,15.8954869 62.6508314,20.152019 60.5225653,24.608076 Z" id="Shape"></path>
            </g>
        </g>
    </g>
</svg>